<svg id="Layer_1" data-name="Layer 1" xmlns="http://www.w3.org/2000/svg" xmlns:xlink="http://www.w3.org/1999/xlink" viewBox="0 0 140 40"><defs><style>.cls-1{fill:url(#linear-gradient);}.cls-2{fill:#fff;}</style><linearGradient id="linear-gradient" x1="0.3" y1="20.5" x2="44.08" y2="20.5" gradientUnits="userSpaceOnUse"><stop offset="0" stop-color="#ffc83a"/><stop offset="0.49" stop-color="#ff008a"/><stop offset="1" stop-color="#6100ff"/></linearGradient></defs><path class="cls-1" d="M10.19,33.57a12.23,12.23,0,0,1-5.13-1A8.09,8.09,0,0,1,1.57,29.6,8.13,8.13,0,0,1,.3,25v-.66H5v.52a4.09,4.09,0,0,0,1.43,3.27,5.57,5.57,0,0,0,3.77,1.23,5.47,5.47,0,0,0,3.68-1.13,3.66,3.66,0,0,0,1.3-2.86V25a3,3,0,0,0-.59-1.9A3.36,3.36,0,0,0,13,22.06a6.79,6.79,0,0,0-2.24-.35H5.65V16.59l8.27-4.39v-.59H1V7.44H19.12v6.22l-7.72,4.1v.59h1.35A8.52,8.52,0,0,1,16.1,19a6.39,6.39,0,0,1,2.69,2.14,6.19,6.19,0,0,1,1.06,3.75v.44a7.71,7.71,0,0,1-1.21,4.34,7.87,7.87,0,0,1-3.38,2.86A12,12,0,0,1,10.19,33.57ZM23,33.06V28.81h3.37V11.68H23V7.44H33.54q5.16,0,7.85,2.61c1.8,1.75,2.69,4.34,2.69,7.78v4.84c0,3.44-.89,6-2.69,7.77S37,33.06,33.54,33.06Zm8.2-4.39h2.42a5.4,5.4,0,0,0,4.28-1.54,6.32,6.32,0,0,0,1.35-4.32V17.69a6.32,6.32,0,0,0-1.35-4.34,5.47,5.47,0,0,0-4.28-1.52H31.2Z"/><path class="cls-2" d="M48.11,33.06V7.44h4.83V33.06Z"/><path class="cls-2" d="M66.45,33.57a10.23,10.23,0,0,1-4.78-1.1,8.22,8.22,0,0,1-3.38-3.18A9.7,9.7,0,0,1,57,24.24v-.51a9.74,9.74,0,0,1,1.25-5.06,8.22,8.22,0,0,1,3.38-3.18,10.35,10.35,0,0,1,4.78-1.1,10.1,10.1,0,0,1,4.47.92,8,8,0,0,1,3,2.5,9,9,0,0,1,1.52,3.61L71,22.37a5.28,5.28,0,0,0-.66-2A3.69,3.69,0,0,0,68.88,19a4.77,4.77,0,0,0-2.32-.51,5.12,5.12,0,0,0-2.51.61,4.34,4.34,0,0,0-1.76,1.79,6.14,6.14,0,0,0-.64,2.91v.37a6.19,6.19,0,0,0,.64,2.91,4.34,4.34,0,0,0,1.76,1.79,5.23,5.23,0,0,0,2.51.6,4.3,4.3,0,0,0,3.17-1.08,5.08,5.08,0,0,0,1.37-2.83l4.46,1.06a10.05,10.05,0,0,1-1.62,3.53,8.07,8.07,0,0,1-3,2.51A10.1,10.1,0,0,1,66.45,33.57Z"/><path class="cls-2" d="M88,33.57a10.48,10.48,0,0,1-4.87-1.1,8.21,8.21,0,0,1-3.4-3.18,9.6,9.6,0,0,1-1.25-5v-.59a9.66,9.66,0,0,1,1.25-5,8.21,8.21,0,0,1,3.4-3.18,11.33,11.33,0,0,1,9.74,0,8.21,8.21,0,0,1,3.4,3.18,9.66,9.66,0,0,1,1.25,5v.59a9.6,9.6,0,0,1-1.25,5,8.21,8.21,0,0,1-3.4,3.18A10.48,10.48,0,0,1,88,33.57Zm0-4.1a4.76,4.76,0,0,0,3.51-1.37,5.27,5.27,0,0,0,1.4-3.93V23.8a5.33,5.33,0,0,0-1.38-3.94,5.21,5.21,0,0,0-7,0,5.29,5.29,0,0,0-1.4,3.94v.37a5.27,5.27,0,0,0,1.4,3.93A4.75,4.75,0,0,0,88,29.47Z"/><path class="cls-2" d="M101.77,33.06V14.9h4.54v2.38H107a4.82,4.82,0,0,1,1.65-1.81,6.33,6.33,0,0,1,3.66-.86,7.09,7.09,0,0,1,3.72,1,6.7,6.7,0,0,1,2.47,2.67,8.64,8.64,0,0,1,.87,4V33.06h-4.61V22.59a4.2,4.2,0,0,0-1-3.07,3.84,3.84,0,0,0-2.88-1,4,4,0,0,0-3.29,1.41,6,6,0,0,0-1.17,3.94v9.22Z"/><path class="cls-2" d="M131.86,33.57A10.24,10.24,0,0,1,126,32a6.35,6.35,0,0,1-2.74-4.4l4.24-1.1a4.54,4.54,0,0,0,.86,2,3.38,3.38,0,0,0,1.51,1,5.82,5.82,0,0,0,2,.31,4,4,0,0,0,2.38-.57,1.66,1.66,0,0,0,.77-1.4,1.44,1.44,0,0,0-.73-1.3,6.8,6.8,0,0,0-2.34-.75l-1-.19a18.72,18.72,0,0,1-3.48-1,6.29,6.29,0,0,1-2.52-1.78A4.36,4.36,0,0,1,124,20a4.84,4.84,0,0,1,2-4.15,8.57,8.57,0,0,1,5.2-1.45,8.78,8.78,0,0,1,5.05,1.36,6.21,6.21,0,0,1,2.64,3.55l-4.28,1.31a3,3,0,0,0-1.19-2,4,4,0,0,0-2.22-.59,3.69,3.69,0,0,0-2,.46,1.43,1.43,0,0,0-.7,1.26,1.4,1.4,0,0,0,.74,1.3,5.91,5.91,0,0,0,2,.64l1,.19a21.54,21.54,0,0,1,3.71,1,6.17,6.17,0,0,1,2.64,1.72,4.47,4.47,0,0,1,1,3A5.2,5.2,0,0,1,137.41,32,9.07,9.07,0,0,1,131.86,33.57Z"/></svg>